<svg width="384" height="511" viewBox="0 0 384 511" fill="none" xmlns="http://www.w3.org/2000/svg">
<path fill-rule="evenodd" clip-rule="evenodd" d="M351.079 15.0291C330.016 0.048353 302.748 -3.87467 278.857 4.6396C263.756 10.0207 247.27 22.5089 247.27 28.5674C247.27 32.2076 251.295 36.3456 254.834 36.3456C256.695 36.3456 259.172 34.9073 263.435 31.3527C281.151 16.5812 303.651 12.0727 324.805 19.0568C335.55 22.6044 342.515 27.2401 351.042 36.5188C359.764 46.0117 364.304 54.8491 366.527 66.6635C370.123 85.7766 365.201 104.234 352.474 119.358C346.581 126.361 345.849 129.975 349.57 133.696C353.5 137.625 356.687 136.939 362.769 130.857C376.676 116.951 384.967 92.7437 383.081 71.551C381.114 49.427 368.758 27.6022 351.079 15.0291ZM311.242 56.6678C305.581 54.7728 299.181 55.1072 291.936 57.6769C288.599 58.8613 281.034 66.1918 204.674 142.242C158.69 188.04 120.189 226.054 119.116 226.718C116.599 228.278 111.188 226.574 109.453 223.674C108.568 222.197 108.906 213.44 110.463 197.432C113.014 171.235 113.016 166.175 110.477 158.42C105.208 142.325 90.2155 131.455 71.9891 130.515L66.1321 130.213L34.9883 228.853C17.8594 283.105 3.08509 331.188 2.15666 335.704C-2.29458 357.359 2.41335 381.145 14.7446 399.311C21.3285 409.012 103.216 490.713 112.477 496.821C125.815 505.621 139.586 509.947 155.607 510.373C172.593 510.825 187.712 507.195 203.751 498.815L211.915 494.551L280.858 425.608L349.801 356.665L351.145 351.485C355.663 334.079 344.529 318.684 327.032 318.145C317.832 317.862 315.109 319.356 301.49 332.167L289.218 343.709L285.529 343.429C281.084 343.094 278.65 340.896 278.22 336.832C277.903 333.832 278.018 333.691 295.82 315.187C312.28 298.077 313.883 296.169 315.509 291.747C320.909 277.062 313.33 261.642 299.036 258.23C293.383 256.882 284.402 258.185 279.239 261.104C277.394 262.145 268.173 270.721 258.507 280.383C241.968 296.914 240.93 297.804 237.768 298.182C233.067 298.744 228.824 294.501 229.386 289.799C229.768 286.596 230.601 285.653 251.483 264.771C275.806 240.448 277.104 238.681 277.867 228.843C278.971 214.626 268.526 202.493 254.413 201.594C242.504 200.836 243.057 200.461 213.442 229.273L187.392 254.615L184.372 254.296C182.712 254.121 180.766 253.391 180.05 252.675C178.133 250.758 176.745 246.492 177.401 244.532C177.716 243.591 211.226 209.251 251.866 168.221L325.759 93.6212L327.057 89.2619C328.748 83.5768 328.558 75.1997 326.631 70.5207C324.196 64.6086 317.823 58.8712 311.242 56.6678Z" fill="white"/>
</svg>
