<svg width="557" height="616" fill="none" xmlns="http://www.w3.org/2000/svg"><g filter="url(#filter0_b_231_2)"><path d="M2 102C2 46.772 46.772 2 102 2h410c24.301 0 44 19.7 44 44v467.739c0 55.228-44.772 100-100 100H46c-24.3 0-44-19.7-44-44V102z" fill="url(#paint0_linear_231_2)" fill-opacity=".3"/><path d="M2.5 102C2.5 47.048 47.048 2.5 102 2.5h410c24.024 0 43.5 19.476 43.5 43.5v467.739c0 54.952-44.548 99.5-99.5 99.5H46c-24.024 0-43.5-19.476-43.5-43.5V102z" stroke="#ED54EC"/></g><path d="M2.73 135.384l.706-41.552C4.27 44.837 43.358 5.093 92.332 3.447L135.383 2" stroke="#ED54EC" stroke-width="4"/><circle cx="280.095" cy="189.469" r="120.459" fill="url(#paint1_linear_231_2)" stroke="#ED54EC"/><path d="M554.903 479.989v31.38l-.248 11.222c-1.087 49.308-40.863 88.987-90.174 89.954l-42.231.828M181.429 120.034c52.988-68.331 143.25-69.427 196.239-1.096M377.667 260.363c-52.988 68.332-142.885 67.601-195.873-.73" stroke="#ED54EC" stroke-width="4"/><path d="M267.157 245.223c-6.265 0-11.847-1.087-16.748-3.26-4.9-2.216-8.778-5.476-11.633-9.78-2.813-4.347-4.219-9.758-4.219-16.236 0-5.454 1.002-10.035 3.004-13.743 2.003-3.707 4.731-6.69 8.182-8.948 3.452-2.259 7.372-3.964 11.762-5.114 4.431-1.151 9.076-1.96 13.934-2.429 5.711-.597 10.313-1.151 13.807-1.662 3.494-.554 6.03-1.364 7.607-2.429 1.576-1.065 2.365-2.642 2.365-4.73v-.384c0-4.048-1.279-7.18-3.836-9.396-2.514-2.216-6.093-3.324-10.738-3.324-4.901 0-8.8 1.087-11.698 3.26-2.897 2.131-4.815 4.815-5.752 8.054l-25.185-2.045c1.278-5.966 3.792-11.123 7.542-15.469 3.75-4.389 8.587-7.756 14.51-10.1 5.966-2.386 12.87-3.579 20.711-3.579 5.454 0 10.674.639 15.66 1.918 5.029 1.278 9.482 3.259 13.36 5.944 3.92 2.685 7.009 6.136 9.268 10.355 2.259 4.176 3.388 9.183 3.388 15.022v66.221h-25.824v-13.615h-.767c-1.577 3.068-3.686 5.774-6.328 8.118-2.642 2.301-5.817 4.112-9.524 5.433-3.708 1.279-7.99 1.918-12.848 1.918zm7.798-18.793c4.006 0 7.543-.788 10.611-2.365 3.068-1.619 5.476-3.792 7.223-6.52 1.747-2.727 2.62-5.816 2.62-9.268v-10.419c-.852.554-2.024 1.065-3.515 1.534-1.449.426-3.09.831-4.922 1.214-1.832.341-3.665.661-5.497.959-1.833.256-3.495.49-4.986.703-3.196.469-5.987 1.215-8.374 2.238-2.386 1.022-4.24 2.407-5.561 4.154-1.321 1.705-1.981 3.836-1.981 6.392 0 3.708 1.342 6.542 4.027 8.502 2.727 1.917 6.179 2.876 10.355 2.876z" fill="#fff"/><defs><filter id="filter0_b_231_2" x="-8" y="-8" width="574" height="631.738" filterUnits="userSpaceOnUse" color-interpolation-filters="sRGB"><feFlood flood-opacity="0" result="BackgroundImageFix"/><feGaussianBlur in="BackgroundImage" stdDeviation="5"/><feComposite in2="SourceAlpha" operator="in" result="effect1_backgroundBlur_231_2"/><feBlend in="SourceGraphic" in2="effect1_backgroundBlur_231_2" result="shape"/></filter><linearGradient id="paint0_linear_231_2" x1="271.326" y1="-4.578" x2="279" y2="613.739" gradientUnits="userSpaceOnUse"><stop stop-color="#D9D9D9" stop-opacity=".3"/><stop offset="1" stop-color="#D9D9D9" stop-opacity=".1"/></linearGradient><linearGradient id="paint1_linear_231_2" x1="280.095" y1="68.51" x2="280.095" y2="310.428" gradientUnits="userSpaceOnUse"><stop stop-color="#fff" stop-opacity=".1"/><stop offset="1" stop-color="#fff" stop-opacity=".05"/></linearGradient></defs></svg>