<svg width="557" height="616" fill="none" xmlns="http://www.w3.org/2000/svg"><g filter="url(#filter0_b_231_3)"><path d="M2 102C2 46.772 46.772 2 102 2h410c24.301 0 44 19.7 44 44v467.739c0 55.228-44.772 100-100 100H46c-24.3 0-44-19.7-44-44V102z" fill="url(#paint0_linear_231_3)" fill-opacity=".3"/><path d="M102 2.5h410c24.024 0 43.5 19.476 43.5 43.5v467.739c0 54.952-44.548 99.5-99.5 99.5H46c-24.024 0-43.5-19.476-43.5-43.5V102C2.5 47.048 47.048 2.5 102 2.5z" stroke="#ED54EC"/></g><path d="M2.73 135.384l.707-41.552C4.27 44.837 43.359 5.093 92.333 3.447L135.383 2" stroke="#ED54EC" stroke-width="4"/><circle cx="280.096" cy="189.467" r="120.459" fill="url(#paint1_linear_231_3)" stroke="#ED54EC"/><path d="M554.903 479.989v31.38l-.247 11.222c-1.087 49.308-40.863 88.987-90.174 89.954l-42.232.828M181.429 120.034c52.988-68.331 143.25-69.427 196.239-1.096M377.667 260.363c-52.988 68.332-142.885 67.601-195.873-.73" stroke="#ED54EC" stroke-width="4"/><path d="M254.54 243.369v-98.182h26.399v17.131h1.023c1.79-6.094 4.794-10.696 9.013-13.807 4.219-3.153 9.077-4.73 14.574-4.73 1.363 0 2.834.085 4.41.256 1.577.17 2.962.405 4.155.703v24.162c-1.278-.384-3.047-.725-5.305-1.023-2.259-.298-4.326-.447-6.201-.447-4.005 0-7.585.873-10.738 2.62-3.111 1.705-5.583 4.091-7.415 7.159-1.79 3.069-2.685 6.606-2.685 10.611v55.547h-27.23z" fill="#fff"/><defs><filter id="filter0_b_231_3" x="-8" y="-8" width="574" height="631.738" filterUnits="userSpaceOnUse" color-interpolation-filters="sRGB"><feFlood flood-opacity="0" result="BackgroundImageFix"/><feGaussianBlur in="BackgroundImage" stdDeviation="5"/><feComposite in2="SourceAlpha" operator="in" result="effect1_backgroundBlur_231_3"/><feBlend in="SourceGraphic" in2="effect1_backgroundBlur_231_3" result="shape"/></filter><linearGradient id="paint0_linear_231_3" x1="271.326" y1="-4.578" x2="279" y2="613.739" gradientUnits="userSpaceOnUse"><stop stop-color="#D9D9D9" stop-opacity=".3"/><stop offset="1" stop-color="#D9D9D9" stop-opacity=".1"/></linearGradient><linearGradient id="paint1_linear_231_3" x1="280.096" y1="68.508" x2="280.096" y2="310.426" gradientUnits="userSpaceOnUse"><stop stop-color="#fff" stop-opacity=".1"/><stop offset="1" stop-color="#fff" stop-opacity=".05"/></linearGradient></defs></svg>