<svg width="557" height="616" fill="none" xmlns="http://www.w3.org/2000/svg"><g filter="url(#filter0_b_149_74)"><path d="M2 102C2 46.772 46.772 2 102 2h410c24.301 0 44 19.7 44 44v467.739c0 55.228-44.772 100-100 100H46c-24.3 0-44-19.7-44-44V102z" fill="url(#paint0_linear_149_74)" fill-opacity=".3"/><path d="M2.5 102C2.5 47.048 47.048 2.5 102 2.5h410c24.024 0 43.5 19.476 43.5 43.5v467.739c0 54.952-44.548 99.5-99.5 99.5H46c-24.024 0-43.5-19.476-43.5-43.5V102z" stroke="#ED54EC"/></g><path d="M2.73 135.384l.707-41.552C4.27 44.837 43.359 5.093 92.333 3.447L135.383 2" stroke="#ED54EC" stroke-width="4"/><circle cx="280.096" cy="189.469" r="120.459" fill="url(#paint1_linear_149_74)" stroke="#ED54EC"/><path d="M554.903 479.989v31.38l-.248 11.222c-1.087 49.308-40.863 88.987-90.174 89.954l-42.231.828M181.429 120.034c52.988-68.331 143.25-69.427 196.239-1.096M377.667 260.363c-52.988 68.332-142.885 67.601-195.873-.73" stroke="#ED54EC" stroke-width="4"/><path d="M209.277 243.369v-98.182h25.951v17.323h1.151c2.045-5.753 5.454-10.291 10.227-13.615 4.773-3.324 10.483-4.986 17.131-4.986 6.733 0 12.464 1.683 17.194 5.05 4.731 3.323 7.884 7.841 9.461 13.551h1.022c2.003-5.625 5.625-10.121 10.867-13.487 5.284-3.41 11.527-5.114 18.729-5.114 9.162 0 16.598 2.919 22.308 8.757 5.753 5.795 8.629 14.02 8.629 24.673v66.03h-27.166v-60.66c0-5.455-1.449-9.546-4.347-12.273-2.897-2.727-6.52-4.091-10.866-4.091-4.943 0-8.8 1.577-11.57 4.73-2.77 3.111-4.155 7.223-4.155 12.337v59.957h-26.399v-61.236c0-4.815-1.385-8.65-4.155-11.505-2.727-2.855-6.328-4.283-10.802-4.283-3.026 0-5.753.767-8.182 2.301-2.386 1.492-4.283 3.601-5.689 6.328-1.406 2.685-2.109 5.838-2.109 9.46v58.935h-27.23z" fill="#fff"/><defs><filter id="filter0_b_149_74" x="-8" y="-8" width="574" height="631.738" filterUnits="userSpaceOnUse" color-interpolation-filters="sRGB"><feFlood flood-opacity="0" result="BackgroundImageFix"/><feGaussianBlur in="BackgroundImage" stdDeviation="5"/><feComposite in2="SourceAlpha" operator="in" result="effect1_backgroundBlur_149_74"/><feBlend in="SourceGraphic" in2="effect1_backgroundBlur_149_74" result="shape"/></filter><linearGradient id="paint0_linear_149_74" x1="271.326" y1="-4.578" x2="279" y2="613.739" gradientUnits="userSpaceOnUse"><stop stop-color="#D9D9D9" stop-opacity=".3"/><stop offset="1" stop-color="#D9D9D9" stop-opacity=".1"/></linearGradient><linearGradient id="paint1_linear_149_74" x1="280.096" y1="68.51" x2="280.096" y2="310.428" gradientUnits="userSpaceOnUse"><stop stop-color="#fff" stop-opacity=".1"/><stop offset="1" stop-color="#fff" stop-opacity=".05"/></linearGradient></defs></svg>