<svg width="557" height="617" fill="none" xmlns="http://www.w3.org/2000/svg"><g filter="url(#filter0_b_149_73)"><path d="M2 102.631c0-55.228 44.772-100 100-100h410c24.301 0 44 19.7 44 44V514.37c0 55.228-44.772 100-100 100H46c-24.3 0-44-19.7-44-44V102.631z" fill="url(#paint0_linear_149_73)" fill-opacity=".3"/><path d="M102 3.13h410c24.024 0 43.5 19.476 43.5 43.5v467.74c0 54.952-44.548 99.5-99.5 99.5H46c-24.024 0-43.5-19.476-43.5-43.5V102.631c0-54.952 44.548-99.5 99.5-99.5z" stroke="#ED54EC"/></g><path d="M2.73 136.015l.707-41.552C4.27 45.468 43.359 5.724 92.333 4.078l43.05-1.447" stroke="#ED54EC" stroke-width="4"/><circle cx="280.096" cy="190.1" r="120.459" fill="url(#paint1_linear_149_73)" stroke="#ED54EC"/><path d="M554.903 480.62V512l-.247 11.221c-1.087 49.309-40.863 88.988-90.174 89.955l-42.232.828M181.429 120.665c52.988-68.331 143.25-69.427 196.239-1.096M377.667 260.994c-52.988 68.331-142.885 67.601-195.873-.73" stroke="#ED54EC" stroke-width="4"/><path d="M322.52 173.815l-24.929 1.534c-.426-2.13-1.343-4.048-2.749-5.752-1.406-1.748-3.26-3.133-5.561-4.155-2.258-1.066-4.964-1.598-8.118-1.598-4.219 0-7.777.895-10.675 2.684-2.897 1.748-4.346 4.091-4.346 7.032 0 2.343.937 4.325 2.812 5.944 1.875 1.62 5.093 2.919 9.652 3.899l17.77 3.58c9.546 1.96 16.662 5.114 21.35 9.46 4.687 4.347 7.031 10.057 7.031 17.131 0 6.435-1.896 12.081-5.689 16.939-3.75 4.858-8.906 8.65-15.469 11.378-6.52 2.684-14.041 4.027-22.564 4.027-12.997 0-23.352-2.706-31.065-8.118-7.67-5.455-12.166-12.87-13.487-22.245l26.782-1.406c.81 3.963 2.77 6.989 5.881 9.077 3.111 2.045 7.095 3.068 11.953 3.068 4.773 0 8.608-.916 11.506-2.749 2.94-1.875 4.432-4.282 4.474-7.223-.042-2.471-1.086-4.495-3.132-6.072-2.045-1.619-5.199-2.855-9.46-3.707l-17.003-3.388c-9.588-1.918-16.726-5.242-21.413-9.972-4.645-4.73-6.967-10.76-6.967-18.089 0-6.307 1.704-11.74 5.113-16.3 3.452-4.56 8.289-8.075 14.51-10.547 6.264-2.471 13.594-3.707 21.989-3.707 12.4 0 22.159 2.621 29.275 7.862 7.159 5.241 11.336 12.379 12.529 21.413z" fill="#fff"/><defs><filter id="filter0_b_149_73" x="-8" y="-7.369" width="574" height="631.738" filterUnits="userSpaceOnUse" color-interpolation-filters="sRGB"><feFlood flood-opacity="0" result="BackgroundImageFix"/><feGaussianBlur in="BackgroundImage" stdDeviation="5"/><feComposite in2="SourceAlpha" operator="in" result="effect1_backgroundBlur_149_73"/><feBlend in="SourceGraphic" in2="effect1_backgroundBlur_149_73" result="shape"/></filter><linearGradient id="paint0_linear_149_73" x1="271.326" y1="-3.947" x2="279" y2="614.37" gradientUnits="userSpaceOnUse"><stop stop-color="#D9D9D9" stop-opacity=".3"/><stop offset="1" stop-color="#D9D9D9" stop-opacity=".1"/></linearGradient><linearGradient id="paint1_linear_149_73" x1="280.096" y1="69.141" x2="280.096" y2="311.059" gradientUnits="userSpaceOnUse"><stop stop-color="#fff" stop-opacity=".1"/><stop offset="1" stop-color="#fff" stop-opacity=".05"/></linearGradient></defs></svg>