<svg width="557" height="616" fill="none" xmlns="http://www.w3.org/2000/svg"><g filter="url(#filter0_b_149_86)"><path d="M2 102.369c0-55.228 44.772-100 100-100h410c24.301 0 44 19.7 44 44v467.739c0 55.228-44.772 100-100 100H46c-24.3 0-44-19.7-44-44V102.369z" fill="url(#paint0_linear_149_86)" fill-opacity=".3"/><path d="M102 2.87h410c24.024 0 43.5 19.475 43.5 43.5v467.738c0 54.952-44.548 99.5-99.5 99.5H46c-24.024 0-43.5-19.476-43.5-43.5V102.369c0-54.952 44.548-99.5 99.5-99.5z" stroke="#ED54EC"/></g><path d="M2.73 135.753l.707-41.552C4.27 45.206 43.359 5.462 92.333 3.816l43.05-1.447" stroke="#ED54EC" stroke-width="4"/><circle cx="280.096" cy="189.838" r="120.459" fill="url(#paint1_linear_149_86)" stroke="#ED54EC"/><path d="M554.903 480.358v31.38l-.248 11.222c-1.087 49.308-40.863 88.987-90.174 89.954l-42.231.828M181.429 120.403c52.988-68.331 143.25-69.427 196.239-1.096M377.667 260.732c-52.988 68.332-142.885 67.601-195.873-.73" stroke="#ED54EC" stroke-width="4"/><path d="M308.609 145.556v20.455h-59.126v-20.455h59.126zm-45.703-23.522h27.23v91.534c0 2.514.384 4.474 1.151 5.881.767 1.363 1.832 2.322 3.196 2.876 1.406.554 3.025.831 4.858.831 1.278 0 2.556-.107 3.835-.32 1.278-.255 2.258-.447 2.94-.575l4.283 20.263c-1.364.426-3.281.916-5.753 1.47-2.472.597-5.476.959-9.013 1.087-6.562.255-12.315-.618-17.258-2.621-4.901-2.003-8.715-5.114-11.442-9.333-2.727-4.218-4.07-9.545-4.027-15.98v-95.113z" fill="#fff"/><defs><filter id="filter0_b_149_86" x="-8" y="-7.631" width="574" height="631.738" filterUnits="userSpaceOnUse" color-interpolation-filters="sRGB"><feFlood flood-opacity="0" result="BackgroundImageFix"/><feGaussianBlur in="BackgroundImage" stdDeviation="5"/><feComposite in2="SourceAlpha" operator="in" result="effect1_backgroundBlur_149_86"/><feBlend in="SourceGraphic" in2="effect1_backgroundBlur_149_86" result="shape"/></filter><linearGradient id="paint0_linear_149_86" x1="271.326" y1="-4.209" x2="279" y2="614.108" gradientUnits="userSpaceOnUse"><stop stop-color="#D9D9D9" stop-opacity=".3"/><stop offset="1" stop-color="#D9D9D9" stop-opacity=".1"/></linearGradient><linearGradient id="paint1_linear_149_86" x1="280.096" y1="68.879" x2="280.096" y2="310.797" gradientUnits="userSpaceOnUse"><stop stop-color="#fff" stop-opacity=".1"/><stop offset="1" stop-color="#fff" stop-opacity=".05"/></linearGradient></defs></svg>